<?xml version="1.0" encoding="utf-8"?>
<!-- Generator: Adobe Illustrator 21.0.0, SVG Export Plug-In . SVG Version: 6.00 Build 0)  -->
<svg version="1.1" id="Capa_1" xmlns="http://www.w3.org/2000/svg" xmlns:xlink="http://www.w3.org/1999/xlink" x="0px" y="0px"
	 viewBox="0 0 200 112.4" style="enable-background:new 0 0 200 112.4;" xml:space="preserve">
<style type="text/css">
	.st0{fill:#FF0000;}
	.st1{fill:#2E3192;}
	.st2{fill:#FFFFFF;}
</style>
<circle cx="100" cy="56.2" r="56"/>
<g>
	<path class="st2" d="M67.1,78.8c8.6-1,16.8-2,25-3c0,0.2,0,0.4,0.1,0.5c-3.6,0.5-7.3,0.9-10.9,1.6c-5.2,0.9-10.3,2-15.5,3
		c-0.6,0.1-1.4-0.2-2-0.5c-1.4-0.7-2.7-1.6-4.3-2.6c1.8-11,3.6-22.2,5.5-33.5c0.1,0,0.2,0,0.3,0c-1.6,11-3.2,22.1-4.7,33.1
		c0.4,0.1,0.7,0.1,1.1,0.2c0.6-2.9,1.2-5.8,1.8-9c0.6,3.8-1.4,7.5,0.4,10.8c0.3,0,0.6,0,0.8,0c0.2-1.9,0.4-3.9,0.5-5.8
		c0.6-10.5,1.2-21,1.8-31.5c0-0.7-0.4-1.3-0.6-2c1.6,0.1,3.7,0.2,5.9,0.4c0.1-0.5,0.2-1,0.3-1.4c0.8-4.8,4-7.3,8.9-6.9
		c3.9,0.3,6.6,3.7,6.8,8c0.1,2.2,0.5,4.4,0.7,6.6c0,0.4-0.3,1-0.7,1.3c-0.3,0.2-1,0-1.2-0.2c-0.3-0.3-0.3-0.9-0.3-1.4
		c0.2-1.4,0.6-2.7,0.9-4.3c-5,0-9.5,0-14.5,0c0.3,1.5,0.6,2.9,0.8,4.2c0.1,0.5,0,1.2-0.3,1.6c-0.2,0.3-1.1,0.3-1.4,0
		c-0.3-0.3-0.4-1-0.4-1.5c0.2-1.4,0.5-2.7,0.8-4.3c-1.1-0.1-1.7-0.1-2.4-0.1c-1.2-0.1-1.6,0.5-1.6,1.6C68.4,52.4,68,61,67.6,69.6
		C67.4,72.7,67.2,75.7,67.1,78.8z M85.2,41.8c2.4,0.2,2.7-0.1,2.3-2.5c-0.1-0.4-0.1-0.8-0.2-1.2c-0.6-3.2-4.1-5.5-7.7-5.2
		c-3.1,0.3-6.1,3.4-6.2,6.3c0,1,0.2,1.6,1.4,1.7C78.3,41.2,81.7,41.5,85.2,41.8z"/>
</g>
<path class="st2" d="M91.2,52.5v0.6c-1.3,0-2.4,1.2-3.3,3.5l-5.4,14.3H82l-5.6-14.8c-0.5-1.4-1-2.2-1.4-2.6
	c-0.4-0.4-0.9-0.5-1.6-0.6v-0.5h6.6V53c-1.1,0-1.6,0.4-1.6,1.2c0,0.3,0.1,0.6,0.2,0.9L83,66.9l4.2-11.3c0.2-0.5,0.3-0.9,0.3-1.3
	c0-0.9-0.5-1.3-1.6-1.3v-0.5H91.2z"/>
<path class="st2" d="M100,67.8v0.8c-0.7,0.9-1.4,1.5-2.1,1.9c-0.7,0.4-1.6,0.6-2.5,0.6c-1.8,0-3.2-0.6-4.3-1.7
	c-1.1-1.1-1.7-2.5-1.7-4.2c0-1.7,0.5-3.1,1.6-4.3c1.1-1.2,2.4-1.8,4-1.8c1.3,0,2.4,0.4,3.4,1.3s1.5,1.9,1.5,3.1v0.2h-8.3V64
	c0,1.2,0.2,2.3,0.6,3.2c0.4,0.9,0.9,1.6,1.7,2.1c0.7,0.5,1.5,0.8,2.3,0.8c0.7,0,1.4-0.2,1.9-0.5C98.4,69.4,99.1,68.8,100,67.8z
	 M91.5,63.3h6.1v-0.2c0-1-0.3-1.8-0.9-2.4c-0.6-0.6-1.3-0.9-2.1-0.9c-0.9,0-1.6,0.3-2.2,0.9C91.9,61.4,91.6,62.2,91.5,63.3z"/>
<path class="st2" d="M105.3,59.2v2.2c1.3-1.5,2.7-2.2,4.1-2.2c1.1,0,2,0.4,2.7,1.1c0.7,0.7,1.1,1.7,1.1,2.9v5.1
	c0,0.8,0.1,1.3,0.4,1.5c0.3,0.2,0.8,0.4,1.5,0.4v0.5h-6v-0.5c0.7,0,1.3-0.1,1.5-0.3c0.3-0.2,0.4-0.6,0.4-1.1v-5.9
	c0-0.8-0.2-1.4-0.7-1.9c-0.5-0.5-1.1-0.7-1.8-0.7c-1.1,0-2.1,0.7-3.2,2.2V68c0,0.9,0.1,1.5,0.4,1.8c0.2,0.3,0.7,0.4,1.5,0.4v0.5
	h-5.9v-0.5c0.9,0,1.4-0.1,1.6-0.4c0.2-0.3,0.3-0.9,0.3-1.7v-6.3c0-0.7-0.1-1.1-0.4-1.3c-0.2-0.2-0.7-0.3-1.5-0.3v-0.5l3.5-0.3H105.3
	z"/>
<path class="st2" d="M119.8,55.6h0.5v3.8h3.9v0.8h-3.9v7.2c0,0.8,0.2,1.3,0.5,1.7c0.4,0.4,0.9,0.6,1.5,0.6c0.8,0,1.5-0.4,2.1-1.1
	l0.4,0.4c-1,1.2-2.1,1.9-3.4,1.9c-1,0-1.7-0.3-2.3-0.9c-0.6-0.6-0.9-1.4-0.9-2.4v-7.5H116v-0.5C117.6,58.9,118.8,57.6,119.8,55.6z"
	/>
<path class="st2" d="M131.8,62.3h-1.5v5c0,1.1,0.2,1.8,0.5,2.3c0.3,0.4,0.8,0.6,1.6,0.6v0.5h-6.5v-0.5c0.8,0,1.4-0.2,1.6-0.6
	c0.3-0.4,0.4-1.2,0.4-2.2V55.9c0-1.1-0.1-1.8-0.4-2.2c-0.3-0.4-0.8-0.6-1.6-0.6v-0.5h7.5c1.8,0,3.3,0.4,4.4,1.3
	c1.1,0.9,1.7,2,1.7,3.4c0,2.2-1.2,3.7-3.7,4.5c0.5,0.4,1.1,0.8,1.6,1.4c0.5,0.6,1.2,1.6,2.1,3.1c1,1.6,1.7,2.6,2.2,3.1
	c0.5,0.5,1.1,0.8,1.7,0.8v0.5h-3.7c-0.8-0.9-1.7-2.3-2.8-4.1c-1.2-1.9-2.1-3.1-2.7-3.6C133.3,62.5,132.6,62.3,131.8,62.3z
	 M132.2,53.2h-1.9v8.3h2.2c1.3,0,2.4-0.4,3.1-1.1c0.8-0.8,1.1-1.8,1.1-3c0-1.2-0.4-2.2-1.3-3C134.7,53.6,133.6,53.2,132.2,53.2z"/>
</svg>
