<?xml version="1.0" encoding="utf-8"?>
<!-- Generator: Adobe Illustrator 21.0.0, SVG Export Plug-In . SVG Version: 6.00 Build 0)  -->
<svg version="1.1" id="Capa_1" xmlns="http://www.w3.org/2000/svg" xmlns:xlink="http://www.w3.org/1999/xlink" x="0px" y="0px"
	 viewBox="0 0 200 112.4" style="enable-background:new 0 0 200 112.4;" xml:space="preserve">
<style type="text/css">
	.st0{fill:#FF0000;}
	.st1{fill:#2E3192;}
	.st2{fill:#FFFFFF;}
</style>
<g>
	<path d="M40.1,96.3c15.3-1.8,30-3.5,44.7-5.3c0,0.3,0.1,0.6,0.1,0.9c-6.5,0.9-13,1.7-19.4,2.8c-9.2,1.7-18.4,3.6-27.6,5.3
		c-1.1,0.2-2.6-0.3-3.6-0.9c-2.5-1.3-4.8-2.9-7.7-4.6c3.2-19.6,6.5-39.8,9.8-59.9c0.2,0,0.4,0.1,0.6,0.1
		c-2.8,19.8-5.6,39.5-8.5,59.3c0.6,0.1,1.3,0.2,1.9,0.4c1-5.2,2.1-10.3,3.3-16.1c1.1,6.8-2.5,13.4,0.8,19.3c0.5,0,1,0,1.5-0.1
		c0.3-3.5,0.6-7,0.8-10.4c1.1-18.8,2.2-37.5,3.2-56.3c0.1-1.2-0.7-2.4-1-3.6c2.9,0.2,6.7,0.4,10.6,0.6c0.2-1,0.4-1.8,0.5-2.5
		c1.4-8.5,7.2-13.1,15.8-12.4c6.9,0.6,11.8,6.5,12.1,14.3c0.2,3.9,1,7.8,1.3,11.8c0.1,0.8-0.5,1.8-1.2,2.3c-0.5,0.3-1.8,0.1-2.2-0.4
		c-0.5-0.6-0.6-1.7-0.5-2.5c0.4-2.5,1-4.9,1.6-7.7c-9,0-17,0-25.9,0c0.5,2.7,1.1,5.1,1.4,7.5c0.1,0.9,0,2.2-0.5,2.8
		c-0.4,0.5-2,0.5-2.5,0c-0.6-0.5-0.8-1.8-0.6-2.7c0.4-2.5,1-4.9,1.5-7.7c-2-0.1-3.1-0.1-4.3-0.2c-2.2-0.3-2.8,0.8-2.9,2.9
		c-0.7,15.4-1.5,30.9-2.3,46.3C40.7,85.3,40.4,90.8,40.1,96.3z M72.4,30.1c4.4,0.3,4.7-0.1,4.1-4.4c-0.1-0.7-0.2-1.4-0.3-2.1
		c-1.1-5.7-7.3-9.9-13.8-9.3c-5.6,0.5-10.9,6-11,11.3c0,1.8,0.4,2.9,2.5,3.1C60.1,29.1,66.3,29.6,72.4,30.1z"/>
</g>
<path d="M83.1,49.3v1c-2.4,0-4.4,2.1-5.9,6.3l-9.6,25.6h-0.9L56.6,55.9c-0.9-2.4-1.8-4-2.4-4.6c-0.7-0.6-1.7-1-2.9-1v-0.9h11.8v0.9
	c-1.9,0-2.8,0.7-2.8,2.2c0,0.5,0.1,1,0.4,1.6l8,21l7.5-20.3c0.3-0.9,0.5-1.6,0.5-2.2c0-1.5-1-2.3-2.9-2.3v-0.9H83.1z"/>
<path d="M98.9,76.6v1.5c-1.2,1.6-2.5,2.7-3.7,3.3c-1.3,0.7-2.8,1-4.6,1c-3.1,0-5.7-1-7.8-3c-2-2-3.1-4.5-3.1-7.5c0-3,1-5.6,2.9-7.7
	c1.9-2.1,4.3-3.1,7.2-3.1c2.3,0,4.4,0.8,6.1,2.4s2.6,3.4,2.6,5.6v0.4H83.7v0.3c0,2.2,0.3,4.1,1,5.8c0.7,1.6,1.7,2.9,3,3.8
	c1.3,0.9,2.6,1.4,4,1.4c1.3,0,2.4-0.3,3.4-0.8C96.1,79.5,97.3,78.3,98.9,76.6z M83.7,68.6h10.9v-0.4c0-1.8-0.5-3.2-1.5-4.3
	c-1-1.1-2.3-1.6-3.8-1.6c-1.6,0-2.9,0.6-3.9,1.7C84.4,65.1,83.9,66.6,83.7,68.6z"/>
<path d="M108.5,61.2v4c2.3-2.7,4.8-4,7.3-4c1.9,0,3.6,0.7,4.8,2c1.3,1.3,1.9,3.1,1.9,5.2v9.1c0,1.4,0.2,2.3,0.7,2.7
	c0.5,0.4,1.4,0.7,2.7,0.7v0.9h-10.7v-0.9c1.3,0,2.2-0.2,2.7-0.5c0.5-0.3,0.7-1,0.7-2V67.8c0-1.4-0.4-2.5-1.3-3.4
	c-0.8-0.8-1.9-1.2-3.2-1.2c-1.9,0-3.8,1.3-5.7,3.9V77c0,1.7,0.2,2.7,0.6,3.2c0.4,0.5,1.3,0.7,2.7,0.7v0.9h-10.6v-0.9
	c1.5,0,2.5-0.2,2.8-0.7c0.3-0.5,0.5-1.5,0.5-3.1V65.7c0-1.2-0.2-2-0.6-2.4s-1.3-0.6-2.7-0.6v-0.9l6.3-0.6H108.5z"/>
<path d="M134.3,54.9h1v6.8h7v1.5h-7v12.9c0,1.3,0.3,2.4,0.9,3.1c0.6,0.7,1.5,1.1,2.7,1.1c1.4,0,2.6-0.6,3.7-1.9l0.6,0.7
	c-1.8,2.2-3.8,3.4-6.1,3.4c-1.7,0-3.1-0.5-4.2-1.6s-1.6-2.5-1.6-4.2V63.1h-3.8v-1C130.4,60.8,132.6,58.3,134.3,54.9z"/>
<path d="M155.8,66.8h-2.6v8.9c0,1.9,0.3,3.3,0.8,4c0.5,0.8,1.5,1.1,2.9,1.1v0.9h-11.7v-0.9c1.4,0,2.4-0.4,2.9-1.1
	c0.5-0.8,0.8-2.1,0.8-4V55.3c0-1.9-0.3-3.2-0.7-4c-0.5-0.7-1.5-1.1-2.9-1.1v-0.9h13.3c3.3,0,5.9,0.8,7.9,2.4s3,3.6,3,6.1
	c0,4-2.2,6.7-6.7,8c1,0.6,1.9,1.5,2.9,2.6c0.9,1.1,2.2,2.9,3.7,5.5c1.7,2.8,3,4.7,4,5.6s2,1.4,3,1.4v0.9h-6.7c-1.4-1.6-3-4.1-5-7.2
	c-2.1-3.4-3.7-5.5-4.9-6.4C158.5,67.2,157.3,66.8,155.8,66.8z M156.6,50.5h-3.4v14.9h4c2.4,0,4.3-0.7,5.6-2.1c1.4-1.4,2-3.2,2-5.4
	c0-2.2-0.8-4-2.3-5.3S159.1,50.5,156.6,50.5z"/>
</svg>
